<svg xmlns="http://www.w3.org/2000/svg" width="24" height="24" viewBox="0 0 24 24">
  <path fill="#ffffff" d="M6.25 4A2.25 2.25 0 0 0 4 6.25v11.5A2.25 2.25 0 0 0 6.25 20h11.5A2.25 2.25 0 0 0 20 17.75V6.25A2.25 2.25 0 0 0 17.75 4H6.25Zm.25 2.75c0-.414.336-.75.75-.75h1.5c.414 0 .75.336.75.75v1.5a.75.75 0 0 1-.75.75h-1.5a.75.75 0 0 1-.75-.75v-1.5Zm5.25.25h5a1 1 0 1 1 0 2h-5a1 1 0 1 1 0-2ZM7 11.95a.9.9 0 0 1 1.273 0l.487.487 1.467-1.467a.9.9 0 0 1 1.273 1.273l-2.104 2.104a.9.9 0 0 1-1.273 0l-1.123-1.124a.9.9 0 0 1 0-1.273ZM12 12h4.75a1 1 0 1 1 0 2H12a1 1 0 1 1 0-2Zm-5.5 4.25c0-.414.336-.75.75-.75h1.5c.414 0 .75.336.75.75v1.5a.75.75 0 0 1-.75.75h-1.5a.75.75 0 0 1-.75-.75v-1.5Zm5.25.25h5a1 1 0 1 1 0 2h-5a1 1 0 1 1 0-2Z"/>
</svg>
