<svg xmlns="http://www.w3.org/2000/svg" width="24" height="24" viewBox="0 0 24 24">
  <path fill="#ffffff" d="M7.771 5.229 11 6.5 7.771 7.771 6.5 11 5.229 7.771 2 6.5l3.229-1.271L6.5 2l1.271 3.229Z"/>
  <path fill="#ffffff" d="M3 11c0-.82.11-1.615.315-2.37l.757.298.934 2.373a7 7 0 1 0 4.708-6.92l-.786-.309-.522-1.326a9 9 0 0 1 7.637 16.297L17 20a2 2 0 0 1 2 2H5a2 2 0 0 1 2-2l.957-.957A9 9 0 0 1 3 11Z"/>
  <path fill="#ffffff" d="m15 11-2.152-.848L12 8l-.848 2.152L9 11l2.152.848L12 14l.848-2.152L15 11Z"/>
</svg>
